<?xml version="1.0" standalone="no"?>
<!DOCTYPE svg PUBLIC "-//W3C//DTD SVG 1.1//EN" "http://www.w3.org/Graphics/SVG/1.1/DTD/svg11.dtd" >
<svg xmlns="http://www.w3.org/2000/svg">
<metadata>
Created by FontForge 20120731 at Thu Jul 30 00:42:39 2015
 By Ads
</metadata>
<defs>
<font id="iconfont" horiz-adv-x="1024" >
  <font-face 
    font-family="iconfont"
    font-weight="500"
    font-stretch="normal"
    units-per-em="1024"
    panose-1="2 0 6 3 0 0 0 0 0 0"
    ascent="812"
    descent="-212"
    x-height="792"
    bbox="0 -219 1024 812.085"
    underline-thickness="50"
    underline-position="-100"
    unicode-range="U+0078-E628"
  />
<missing-glyph horiz-adv-x="374" 
d="M34 0v682h272v-682h-272zM68 34h204v614h-204v-614z" />
    <glyph glyph-name=".notdef" horiz-adv-x="374" 
d="M34 0v682h272v-682h-272zM68 34h204v614h-204v-614z" />
    <glyph glyph-name=".null" horiz-adv-x="0" 
 />
    <glyph glyph-name="nonmarkingreturn" horiz-adv-x="341" 
 />
    <glyph glyph-name="x" unicode="x" horiz-adv-x="1001" 
d="M281 543q-27 -1 -53 -1h-83q-18 0 -36.5 -6t-32.5 -18.5t-23 -32t-9 -45.5v-76h912v41q0 16 -0.5 30t-0.5 18q0 13 -5 29t-17 29.5t-31.5 22.5t-49.5 9h-133v-97h-438v97zM955 310v-52q0 -23 0.5 -52t0.5 -58t-10.5 -47.5t-26 -30t-33 -16t-31.5 -4.5q-14 -1 -29.5 -0.5
t-29.5 0.5h-32l-45 128h-439l-44 -128h-29h-34q-20 0 -45 1q-25 0 -41 9.5t-25.5 23t-13.5 29.5t-4 30v167h911zM163 247q-12 0 -21 -8.5t-9 -21.5t9 -21.5t21 -8.5q13 0 22 8.5t9 21.5t-9 21.5t-22 8.5zM316 123q-8 -26 -14 -48q-5 -19 -10.5 -37t-7.5 -25t-3 -15t1 -14.5
t9.5 -10.5t21.5 -4h37h67h81h80h64h36q23 0 34 12t2 38q-5 13 -9.5 30.5t-9.5 34.5q-5 19 -11 39h-368zM336 498v228q0 11 2.5 23t10 21.5t20.5 15.5t34 6h188q31 0 51.5 -14.5t20.5 -52.5v-227h-327z" />
    <glyph glyph-name="uniE600" unicode="&#xe600;" 
d="M915 396h-79l-6 15q-4 10 -7.5 19t-8.5 20t-9 19l55 54q14 13 14 31.5t-13 31.5l-64 63q-9 9 -20.5 12t-23 -0.5t-20.5 -11.5l-52 -56q-14 8 -42 19t-31 12v79q0 18 -16 31.5t-35 13.5h-90q-7 0 -14.5 -2.5t-14 -6.5t-11.5 -9.5t-8 -12.5t-3 -14v-79q-3 -1 -31 -12
t-42 -19l-54 56q-13 13 -31.5 13t-31.5 -13l-63 -64q-5 -5 -8.5 -11.5t-4 -13.5t0.5 -13.5t4 -13t8 -11.5l56 -53q-6 -10 -12 -24.5t-11.5 -28.5t-7.5 -20h-79q-9 0 -17.5 -4.5t-14.5 -11.5t-9.5 -16.5t-3.5 -18.5v-90q0 -12 6 -24t16.5 -19.5t22.5 -7.5h79q1 -3 12 -31
t19 -42l-56 -54q-13 -13 -13 -31.5t13 -31.5l64 -63q13 -13 31.5 -13t31.5 13l53 56q14 -8 42 -19t31 -12v-79q0 -18 16 -31.5t35 -13.5h90q19 0 35 13.5t16 31.5v79q3 1 31 12t42 19l54 -55q13 -14 31.5 -14t31.5 13l63 64q9 9 12 20.5t-0.5 23t-11.5 20.5l-56 52
q8 14 19 42t12 31h79q18 0 31.5 16t13.5 35v90q0 19 -13.5 35t-31.5 16zM512 98q-84 0 -143 59t-59 143t59 143t143 59q33 0 64 -10t55.5 -29t43.5 -43.5t29 -55.5t10 -64q0 -84 -59 -143t-143 -59z" />
    <glyph glyph-name="uniE601" unicode="&#xe601;" 
d="M64 718q1 12 9 21q9 9 21 9h362v-392h-392v362zM568 748h362q12 0 21 -9q3 -3 5 -6.5t3 -7.5t1 -7v-362h-392v392zM568 244h392v-362q0 -12 -9 -21t-21 -9h-362v392zM64 244h392v-392h-362q-6 0 -11.5 2t-9.5 7q-9 9 -9 21v362z" />
    <glyph glyph-name="uniE602" unicode="&#xe602;" 
d="M512 300zM384 300q0 53 37.5 90.5t90.5 37.5t90.5 -37.5t37.5 -90.5t-37.5 -90.5t-90.5 -37.5t-90.5 37.5t-37.5 90.5zM896 300zM768 300q0 53 37.5 90.5t90.5 37.5t90.5 -37.5t37.5 -90.5t-37.5 -90.5t-90.5 -37.5t-90.5 37.5t-37.5 90.5zM128 300zM0 300
q0 53 37.5 90.5t90.5 37.5t90.5 -37.5t37.5 -90.5t-37.5 -90.5t-90.5 -37.5t-90.5 37.5t-37.5 90.5z" />
    <glyph glyph-name="uniE603" unicode="&#xe603;" horiz-adv-x="1025" 
d="M878 247v-305q0 -16 -12.5 -28.5t-28.5 -12.5h-244v244h-162v-244h-244q-4 0 -8 1t-7.5 2.5t-7 3.5t-6.5 5q-12 13 -12 29v305v2q1 1 1 2l365 301l365 -301q1 -1 1 -4zM1019 291l-39 -47q-5 -6 -14 -7h-1q-5 0 -8 1t-6 3l-439 366l-440 -366q-7 -5 -15 -4t-13 7l-40 47
q-2 3 -3 6.5t-1 8.5q1 8 7 13l457 380q20 17 48 17h6q3 0 6 -0.5t5.5 -1t5.5 -1.5t5.5 -2t5 -2.5t5 -2.5t5 -3t4.5 -4l155 -129v124q0 4 1.5 8t4.5 6q5 6 14 6h122q9 0 15 -6q5 -6 6 -14v-259l139 -116q6 -5 6.5 -13.5t-4.5 -14.5zM1019 291z" />
    <glyph glyph-name="uniE604" unicode="&#xe604;" 
d="M744 152q-4 2 -27.5 10.5t-38.5 15t-31 18.5t-19 25q-6 25 4 49t33 53.5t30 41.5q20 36 34.5 80t17.5 83q6 70 -12 126.5t-53.5 93t-88 53t-114.5 9.5q-36 -4 -67 -17t-54.5 -33.5t-41 -47t-27.5 -57.5t-12 -66q-10 -144 83 -271q3 -5 14.5 -19.5t14.5 -20t7 -17.5t3 -24
q-1 -9 -6 -17.5t-9 -13.5t-14.5 -11t-14.5 -8t-18 -7.5t-16 -5.5q-34 -14 -94 -47q-61 -34 -100 -65.5t-49 -70.5q-5 -24 -6.5 -44t6 -36.5t16.5 -29.5t24.5 -24t30.5 -18.5t35 -14t37 -10.5t37 -8q55 -10 117 -13.5t137 -3.5q44 0 78.5 1t85.5 4.5t90 11t77.5 19t64.5 31
t36 44.5q7 25 6 52t-6 45q-9 27 -30.5 51t-53.5 44t-56 32t-60 28z" />
    <glyph glyph-name="uniE605" unicode="&#xe605;" 
d="M514 795q-103 0 -197 -40t-162 -108t-108 -162t-40 -197t40 -197t108 -162t162 -108t197 -40t197 40t162 108t108 162t40 197t-40 197t-108 162t-162 108t-197 40zM813 -71q-11 6 -36.5 13.5t-50 14t-48.5 14t-33 13.5q-13 8 -17.5 41.5t-4 51t1.5 28.5l20 18q1 2 1 5.5
t1.5 12t3 16.5t4 16.5t4.5 13.5q4 7 8.5 17t8.5 19.5t7.5 19t6.5 17.5t5.5 14.5t3.5 9.5l1 4q20 15 20 41q0 25 -20 40q1 8 2 21.5t3.5 46t2.5 54.5q0 26 -5.5 48.5t-16 40.5t-26.5 31.5t-36.5 23t-45.5 14t-54 4.5q-94 0 -149.5 -40t-55.5 -122q0 -22 4 -52.5t8 -49.5
l4 -20q-20 -15 -20 -40q0 -5 0.5 -9t1.5 -7t2.5 -6.5t3.5 -5.5t3.5 -4.5t3.5 -4.5l2 -2q1 -1 2 -1l1 -1q24 -74 40 -101q5 -8 8.5 -24t4.5 -27t1 -13l21 -18q1 -11 1.5 -28.5t-4 -51t-18.5 -41.5q-11 -7 -47.5 -17.5t-74 -21t-48.5 -17.5q6 -6 22.5 -18t62 -36t92.5 -37
q-152 40 -250.5 165t-98.5 286q0 63 17 123.5t47 112t73 94.5t94.5 73t112 47t123.5 17q95 0 181.5 -37t149 -99.5t99.5 -149t37 -181.5q0 -71 -21 -137.5t-58.5 -122t-88.5 -99.5zM435 -171q-16 2 -34 7q2 -1 5 -2h4q3 -1 5 -1.5t5 -1t4.5 -1t5.5 -1t5 -0.5z" />
    <glyph glyph-name="uniE606" unicode="&#xe606;" horiz-adv-x="1000" 
d="M140.5 652q-26.5 0 -45 -18.5t-18.5 -45t18.5 -44.5t44.5 -18q18 0 32.5 8t23 22.5t8.5 32.5q0 26 -18.5 44.5t-45 18.5zM925 655h-623q-11 0 -19 -7.5t-8 -18.5v-72q0 -7 3.5 -13t9.5 -9.5t14 -3.5h623q10 0 18 8t8 18v72q0 7 -3.5 13t-9.5 9.5t-13 3.5zM925 380h-623
q-11 0 -19 -7.5t-8 -18.5v-71q0 -11 8 -18.5t19 -7.5h623q10 0 18 7.5t8 18.5v71q0 11 -8 18.5t-18 7.5zM925 105h-623q-11 0 -19 -7.5t-8 -18.5v-71q0 -6 2.5 -10.5t6 -8t8 -5.5t10.5 -2h623q10 0 18 7.5t8 18.5v71q0 8 -3.5 13.5t-9.5 9t-13 3.5zM140 377
q-17 0 -31.5 -8.5t-23 -23t-8.5 -31.5t8.5 -31.5t23 -23t31.5 -8.5q27 0 45.5 18.5t18.5 44.5t-18.5 44.5t-45.5 18.5zM140 102q-26 0 -44.5 -18.5t-18.5 -44.5t18.5 -44.5t45 -18.5t45 18.5t18.5 44.5q0 17 -8.5 31.5t-23 23t-32.5 8.5z" />
    <glyph glyph-name="uniE607" unicode="&#xe607;" 
d="M152.5 652q-26.5 0 -45 -18.5t-18.5 -45t18.5 -44.5t44.5 -18q18 0 32.5 8t23 22.5t8.5 32.5q0 26 -18.5 44.5t-45 18.5zM937 655h-623q-11 0 -19 -7.5t-8 -18.5v-72q0 -10 8 -18t19 -8h623q10 0 18 8t8 18v72q0 11 -8 18.5t-18 7.5zM937 380h-623q-11 0 -19 -7.5
t-8 -18.5v-71q0 -11 8 -18.5t19 -7.5h623q10 0 18 7.5t8 18.5v71q0 6 -2.5 10.5t-5.5 8t-8 5.5t-10 2zM937 105h-623q-11 0 -19 -7.5t-8 -18.5v-71q0 -7 3.5 -13t9.5 -9.5t14 -3.5h623q10 0 18 7.5t8 18.5v71q0 8 -3.5 13.5t-9.5 9t-13 3.5zM152.5 377q-17.5 0 -32 -8.5
t-23 -23t-8.5 -31.5t8.5 -31.5t23 -23t31.5 -8.5q27 0 45.5 18.5t18.5 44.5q0 17 -8.5 31.5t-23 23t-32 8.5zM152 102q-26 0 -44.5 -18.5t-18.5 -44.5t18.5 -44.5t45 -18.5t45 18.5t18.5 44.5q0 17 -8.5 31.5t-23 23t-32.5 8.5z" />
    <glyph glyph-name="uniE608" unicode="&#xe608;" 
d="M612 520h-94h-116h-94q-25 1 -32.5 8t-7.5 32v26v27q-1 30 32 32h4h7h5h146h156h142h153q20 0 29.5 -3.5t13 -13t3.5 -29.5q1 -59 -6.5 -69t-51.5 -10h-19h-270zM613 239h-294h-15q-5 0 -10.5 0.5t-8.5 2t-6.5 3t-4.5 4.5l-4 6q-1 3 -1 8.5t-0.5 11t-0.5 14.5v44
q0 14 7.5 21.5t21.5 8.5h16h600q21 0 30 -3.5t12.5 -12.5t3.5 -31v-1q1 -57 -7 -67t-57 -9h-13h-269zM613 -42h-93h-115h-93q-21 0 -29.5 3t-11.5 11.5t-3 29.5v42q0 23 7.5 30t30.5 7h615q22 0 29.5 -8t8.5 -30q1 -20 0 -47q0 -16 -3.5 -23.5t-11.5 -11t-24 -3.5h-307z
M129 515q-27 0 -45.5 18t-18.5 45q0 17 8.5 31.5t23 23t31.5 8.5q18 0 32.5 -8t23.5 -22t9 -31q0 -19 -8 -33.5t-23 -23t-33 -8.5zM130 -48q-18 0 -32.5 8t-23.5 22t-9 31q-1 17 7.5 32t23 24t31.5 9q17 1 32.5 -7.5t24.5 -23.5t9 -32q0 -13 -5 -24.5t-13.5 -20t-20 -13.5
t-24.5 -5zM65 297q0 26 19.5 44.5t45.5 17.5q12 0 24 -5t20.5 -13.5t13.5 -20t5 -24.5q0 -26 -19.5 -45t-46.5 -18q-25 1 -44 20t-18 44z" />
    <glyph glyph-name="uniE609" unicode="&#xe609;" 
d="M128 620h128v-128h-128v128zM320 620h576v-128h-576v128zM128 364h128v-128h-128v128zM320 364h576v-128h-576v128zM128 108h128v-128h-128v128zM320 108h576v-128h-576v128z" />
    <glyph glyph-name="uniE60A" unicode="&#xe60a;" 
d="M734 300q0 15 -10 26l-259 259q-10 10 -25.5 10t-25.5 -10l-52 -52q-11 -11 -11 -26.5t11 -25.5l108 -108h-287q-15 0 -26 -11t-11 -25v-74q0 -14 11 -25t26 -11h287l-108 -108q-11 -11 -11 -26t11 -26l52 -52q10 -10 25.5 -10t25.5 10l259 259q10 10 10 26zM878 300
q0 -119 -59 -220t-160 -160t-220.5 -59t-220 59t-159.5 160t-59 220t59 220t159.5 160t220 59t220.5 -59t160 -160t59 -220z" />
    <glyph glyph-name="uniE60B" unicode="&#xe60b;" 
d="M512 749q-171 0 -298 -113q-123 -110 -146 -272q-4 -32 -5 -63q0 -73 23 -141.5t64.5 -123.5t96.5 -96.5t123.5 -64t141.5 -22.5q91 0 174 35.5t143 95.5t95.5 143t35.5 174t-35.5 174t-95.5 143t-143 95.5t-174 35.5zM724 281q0 -1 -1 -3q-1 0 -1 -1l-6 -9h-1
q-1 -2 -2 -3l-262 -252q-7 -7 -16 -10.5t-18 -3.5q-22 0 -36 15q-15 15 -14.5 35.5t15.5 35.5l226 217l-227 215q-15 14 -15.5 34.5t13.5 35.5q3 3 5.5 5t5.5 4l6 2q3 2 6 3t6.5 1.5t6.5 0.5q20 0 35 -14l264 -250q12 -11 15 -27t-5 -31z" />
    <glyph glyph-name="uniE60C" unicode="&#xe60c;" 
d="M68 301q0 -90 35 -172.5t94.5 -142t142 -94.5t172.5 -35t172.5 35t142 94.5t94.5 142t35 172.5t-35 172.5t-94.5 142t-142 94.5t-172.5 35t-172.5 -35t-142 -94.5t-94.5 -142t-35 -172.5zM559 565l239 -239q19 -20 20 -46.5t-17.5 -45t-45.5 -17.5t-46 20l-130 131v-289
q0 -18 -9 -33.5t-24.5 -24t-33.5 -8.5q-27 0 -47 19.5t-20 46.5v289l-130 -131q-19 -19 -46 -20t-45.5 17.5t-17.5 45t20 46.5l239 239q19 19 47 19t47 -19z" />
    <glyph glyph-name="uniE60D" unicode="&#xe60d;" 
d="M64 300q0 -91 35.5 -174t95.5 -143t143 -95.5t174 -35.5q73 0 141.5 22.5t123.5 64t96.5 96.5t64 123.5t22.5 141.5q0 91 -35.5 174t-95.5 143t-143 95.5t-174 35.5q-41 0 -80.5 -7t-75.5 -21t-69.5 -33.5t-63 -44t-54 -54t-44 -63t-33.5 -69.5t-21 -75.5t-7 -80.5z
M870 300q0 -73 -28.5 -139.5t-76 -114t-114 -76t-139.5 -28.5q-58 0 -113 18t-99 51t-77 77t-51 99t-18 113q0 73 28.5 139.5t76 114t114 76t139.5 28.5q97 0 179.5 -48t130.5 -130.5t48 -179.5zM246 325q-20 -19 -20.5 -46.5t18 -46t45.5 -17.5t47 21l129 128q19 20 47 20
t47 -20l129 -128q20 -20 47 -21t46 18q12 12 16 28.5t-1 33.5t-18 30l-219 219q-6 6 -14 10.5t-16 6.5t-17 2t-17 -2t-16 -6.5t-14 -10.5zM512 31q18 0 33.5 9t24.5 24.5t9 33.5v314q0 28 -19.5 47.5t-47.5 19.5q-14 0 -26 -5.5t-21 -14.5t-14.5 -21t-5.5 -26v-314
q0 -39 35 -59q16 -7 32 -8z" />
    <glyph glyph-name="uniE60E" unicode="&#xe60e;" 
d="M94 385q-18 -18 -25 -42t0 -48t25 -42l9 -8q28 -27 68.5 -27t68.5 27l203 195q19 18 44 24.5t50 0t44 -24.5l203 -195q28 -27 68.5 -27t68.5 27l9 8q14 13 21 30.5t7 35.5t-7 35.5t-21 30.5l-349 336q-29 27 -69 27t-69 -27zM512 -148q40 0 68.5 27.5t28.5 65.5v514
q0 39 -28.5 66.5t-68.5 27.5t-68.5 -27.5t-28.5 -66.5v-514q0 -25 13 -46.5t35.5 -34t48.5 -12.5z" />
    <glyph glyph-name="uniE60F" unicode="&#xe60f;" 
d="M957 300q0 90 -35 172.5t-94.5 142t-142 94.5t-172.5 35t-172.5 -35t-142 -94.5t-94.5 -142t-35 -172.5t35 -172.5t94.5 -142t142 -94.5t172.5 -35t172.5 35t142 94.5t94.5 142t35 172.5zM466 36l-239 239q-19 20 -20 46.5t18 45.5q12 12 28.5 15.5t33 -1t29.5 -17.5
l130 -131v289q0 27 20 46.5t47 19.5t47 -19.5t20 -46.5v-289l130 131q19 19 46 20t45 -17q12 -12 16 -29t-0.5 -33.5t-17.5 -29.5l-239 -239q-9 -9 -21.5 -14t-25.5 -5t-25.5 5t-21.5 14z" />
    <glyph glyph-name="uniE610" unicode="&#xe610;" 
d="M960 300q0 91 -35.5 174t-95.5 143t-143 95.5t-174 35.5q-46 0 -90.5 -9t-84 -26t-76 -41.5t-66.5 -54.5t-54.5 -66.5t-41.5 -76t-26 -84t-9 -90.5q0 -91 35.5 -174t95.5 -143t143 -95.5t174 -35.5q73 0 141.5 22.5t123.5 64t96.5 96.5t64 123.5t22.5 141.5zM154 300
q0 73 28.5 139.5t76 114t114 76t139.5 28.5q97 0 179.5 -48t130.5 -130.5t48 -179.5q0 -144 -99 -248q-99 -102 -240 -110h-19q-144 0 -248 99q-102 99 -110 240v19zM778 275q20 19 20.5 46.5t-18 46t-45.5 17.5t-47 -21l-129 -128q-19 -20 -47 -20t-47 20l-129 128
q-13 13 -30 18t-34 1t-29 -16q-9 -9 -13.5 -21t-4 -24.5t5.5 -24.5t15 -22l219 -219q12 -12 29.5 -17t35 0t29.5 17zM512 569q-28 0 -47.5 -20t-19.5 -47v-314q0 -28 19.5 -47.5t47.5 -19.5q18 0 33.5 9t24.5 24.5t9 33.5v314q0 27 -19.5 47t-47.5 20z" />
    <glyph glyph-name="uniE611" unicode="&#xe611;" 
d="M930 214q11 11 18 24.5t9 27.5t0 28.5t-9 28t-18 23.5l-9 9q-28 27 -68.5 27t-68.5 -27l-203 -196q-29 -27 -69 -27t-69 27l-203 196q-28 27 -68.5 27t-68.5 -27l-9 -9q-11 -10 -18 -23.5t-9 -28t0 -28.5t9 -27.5t18 -24.5l349 -335q19 -18 44 -24.5t50 0t44 24.5z
M512 748q-40 0 -68.5 -27.5t-28.5 -66.5v-514q0 -38 28.5 -65.5t68.5 -27.5t68.5 27.5t28.5 65.5v514q0 39 -28.5 66.5t-68.5 27.5z" />
    <glyph glyph-name="uniE612" unicode="&#xe612;" 
d="M511 748q-73 0 -141.5 -22.5t-123.5 -64t-96.5 -96.5t-64 -123.5t-22.5 -141.5q0 -91 35.5 -174t95.5 -143t143 -95.5t174 -35.5t174 35.5t143 95.5t95.5 143t35.5 174q0 73 -22.5 141.5t-64 123.5t-96.5 96.5t-123.5 64t-141.5 22.5zM511 -58q-97 0 -179.5 48
t-130.5 130.5t-48 179.5t48 179.5t130.5 130.5t179.5 48q73 0 139.5 -28.5t114 -76t76 -114t28.5 -139.5q0 -144 -99 -248q-99 -102 -240 -110h-19zM536 566q-19 20 -46.5 20.5t-45.5 -17.5q-12 -12 -16 -29t1 -34t18 -30l128 -129q10 -9 15 -21.5t5 -25.5t-5 -25.5
t-15 -21.5l-128 -129q-20 -20 -21 -47t17.5 -45.5t46 -18t46.5 20.5l219 219q4 4 8 10t6.5 12t3.5 12.5t1 12.5t-1 12.5t-3.5 12.5t-6.5 12t-8 10zM242 300q0 -28 20 -47.5t47 -19.5h314q14 0 26 5.5t21 14.5t14.5 21t5.5 26q0 11 -3.5 21t-9.5 18.5t-14.5 14.5t-18.5 9.5
t-21 3.5h-314q-27 0 -47 -19.5t-20 -47.5z" />
    <glyph glyph-name="uniE613" unicode="&#xe613;" 
d="M513 744q-90 0 -172.5 -35t-142 -94.5t-94.5 -142t-35 -172.5t35 -172.5t94.5 -142t142 -94.5t172.5 -35t172.5 35t142 94.5t94.5 142t35 172.5t-35 172.5t-94.5 142t-142 94.5t-172.5 35zM777 253l-239 -239q-8 -7 -17.5 -12t-19 -7t-19.5 -0.5t-19 5.5t-17 12
q-12 12 -15.5 28.5t1 33t17.5 29.5l131 130h-289q-18 0 -33.5 9t-24 24.5t-8.5 33.5q0 13 5 25.5t14 21.5t21.5 14.5t25.5 5.5h289l-131 130q-19 19 -20 46t17 45q12 12 29 16t33.5 -0.5t29.5 -17.5l239 -239q29 -30 15 -70q-5 -14 -15 -24z" />
    <glyph glyph-name="uniE614" unicode="&#xe614;" 
d="M598 718q-14 14 -31.5 21t-35 7t-35 -7t-31.5 -21l-8 -9q-18 -18 -24 -43.5t0 -50.5t24 -43l195 -203q7 -7 12 -15.5t8.5 -17t5.5 -18t2 -18.5t-2 -18.5t-5.5 -18.5t-8.5 -17t-12 -15l-195 -203q-13 -14 -20 -32t-7 -36.5t7 -37t20 -32.5l8 -8q28 -28 66.5 -28t66.5 28
l335 349q13 14 20 32t7 36.5t-7 37t-20 32.5zM64 300q0 -16 4.5 -31t13.5 -27t20.5 -21t25.5 -14t29 -5h515q15 0 29 5t25.5 14t20.5 21t13.5 27t4.5 31q0 26 -12.5 48.5t-34 35.5t-46.5 13h-515q-15 0 -29 -5t-25.5 -14t-20.5 -21t-13.5 -26.5t-4.5 -30.5z" />
    <glyph glyph-name="uniE615" unicode="&#xe615;" 
d="M426 -118q28 -28 66.5 -28t66.5 28l8 8q27 29 27 69.5t-27 68.5l-195 203q-18 19 -24.5 44t0 50t24.5 44l195 203q27 28 27 68.5t-27 68.5l-8 9q-14 14 -31.5 21t-35 7t-35 -7t-31.5 -21l-335 -349q-7 -7 -12 -15.5t-8.5 -17t-5 -18t-1.5 -18.5t1.5 -18.5t5 -18.5
t8.5 -17t12 -15zM960 300q0 40 -27.5 68.5t-65.5 28.5h-515q-38 0 -65.5 -28.5t-27.5 -68.5q0 -16 4.5 -31t13.5 -27t20.5 -21t25.5 -14t29 -5h515q51 0 78 45q15 25 15 53z" />
    <glyph glyph-name="uniE616" unicode="&#xe616;" 
d="M511 -148q91 0 174 35.5t143 95.5t95.5 143t35.5 174t-35.5 174t-95.5 143t-143 95.5t-174 35.5q-73 0 -141.5 -22.5t-123.5 -64t-96.5 -96.5t-64 -123.5t-22.5 -141.5q0 -91 35.5 -174t95.5 -143t143 -95.5t174 -35.5zM511 658q73 0 139.5 -28.5t114 -76t76 -114
t28.5 -139.5q0 -144 -99 -248q-99 -102 -240 -110h-19q-144 0 -248 99q-102 99 -110 240v19q0 97 48 179.5t130.5 130.5t179.5 48zM486 34q19 -20 46.5 -20.5t46 18t17.5 45.5t-21 47l-128 129q-20 19 -20 47t20 47l128 129q20 20 21 47t-17.5 45.5t-46 18t-46.5 -20.5
l-219 -219q-19 -19 -19 -47t19 -47zM780 300q0 28 -20 47.5t-47 19.5h-314q-18 0 -33.5 -9t-24.5 -24.5t-9 -33.5q0 -28 19.5 -47.5t47.5 -19.5h314q27 0 47 19.5t20 47.5z" />
    <glyph glyph-name="uniE617" unicode="&#xe617;" 
d="M511 -144q90 0 172.5 35t142 94.5t94.5 142t35 172.5t-35 172.5t-94.5 142t-142 94.5t-172.5 35t-172.5 -35t-142 -94.5t-94.5 -142t-35 -172.5t35 -172.5t94.5 -142t142 -94.5t172.5 -35zM247 347l239 239q10 9 22 14.5t24.5 5.5t24.5 -4.5t21 -13.5q18 -18 17 -45
t-20 -46l-131 -130h289q27 0 46.5 -20t19.5 -47t-19.5 -47t-46.5 -20h-289l131 -130q19 -19 20 -46t-17.5 -45.5t-45 -17.5t-46.5 20l-239 239q-12 13 -16.5 30t0 34t16.5 30z" />
    <glyph glyph-name="uniE618" unicode="&#xe618;" 
d="M704 -88q-26 1 -70 0.5t-71 0.5h-21q0 9 0.5 27.5t0 32t-0.5 26.5q-1 10 3.5 14t14.5 5q110 14 188 103t76 198q0 15 -8.5 24.5t-21.5 9.5q-12 0 -21 -8.5t-10 -23.5q-1 -3 -1 -8.5t-0.5 -9t-1 -8.5t-1.5 -9q-13 -86 -72.5 -142.5t-147.5 -67.5q-80 -9 -150 30.5
t-105 112.5q-17 36 -24 106q-1 13 -10 21t-22 7q-12 -1 -20 -9.5t-8 -22.5v-11q0 -6 0.5 -11.5t1.5 -11.5t1 -11q7 -41 24 -79t42 -68t56.5 -54t67.5 -38.5t74 -19.5q4 -1 8.5 -5.5t4.5 -7.5q1 -15 1 -92q-17 0 -52 0.5t-61 0.5t-50 -1q-17 0 -26.5 -8t-9.5 -22
q0 -9 4.5 -16t12.5 -10.5t19 -3.5h387q9 0 15.5 2t11.5 6t7.5 9.5t2.5 12.5q0 14 -10 22t-28 8zM646 705q-26 27 -74.5 37t-95 4t-72.5 -24q-35 -25 -53.5 -58t-19.5 -76h367q-3 67 -52 117zM415 139q17 -9 39 -14t36 -5.5t42 0.5q70 1 115.5 44.5t49.5 113.5h-367
q4 -93 85 -139zM696 554h-365v-59h365v59zM697 464h-364v-59h364v59zM693 313v60h-313q-43 0 -49.5 -7.5t-0.5 -52.5h363z" />
    <glyph glyph-name="uniE619" unicode="&#xe619;" 
d="M496 120q50 0 95.5 19t78.5 51.5t53 78t20 95.5v204q0 102 -72.5 173t-174.5 71q-103 0 -175 -71t-72 -173v-204q0 -50 19.5 -95.5t52.5 -78t78.5 -51.5t96.5 -19zM881 414v2q0 8 -4 16.5t-10.5 14.5t-15 9.5t-18.5 3.5q-19 0 -33 -13t-14 -31q0 -10 3 -14v-35
q0 -78 -39 -145t-107 -106t-147 -39q-34 0 -67 7.5t-62 22t-54.5 34.5t-46 45t-35 53.5t-22.5 61t-8 66.5v39l1 4q2 3 2 6q0 18 -14 31t-33 13q-9 0 -17.5 -3.5t-14.5 -9.5t-9.5 -14.5t-3.5 -16.5v-66q0 -96 44 -178t120.5 -134.5t169.5 -65.5v-90h-127q-13 0 -24 -6.5
t-17.5 -17.5t-6.5 -24q0 -19 14 -32.5t34 -13.5h348q14 0 25 6t16.5 16.5t5.5 23.5q0 7 -1.5 13t-4 11t-7 9.5t-9.5 8t-11.5 5t-13.5 1.5h-128v90q145 17 243.5 124.5t98.5 253.5v64z" />
    <glyph glyph-name="uniE61A" unicode="&#xe61a;" 
d="M456 62q-8 0 -14 -6t-6 -14.5t6 -14.5t14.5 -6t14 6t5.5 15q0 4 -1.5 7.5t-4 6.5t-6.5 4.5t-8 1.5zM456.5 138q-8.5 0 -14.5 -6t-6 -15q0 -4 1.5 -7.5t4.5 -6.5t6.5 -4.5t7.5 -1.5q6 0 10.5 3t7 7.5t2.5 9.5q0 9 -5.5 15t-14 6zM540 -14q-9 0 -14.5 -6t-5.5 -14.5
t5.5 -14t14.5 -5.5q5 0 9.5 2.5t7.5 7t3 10t-3 10t-7.5 7.5t-9.5 3zM539.5 62q-8.5 0 -14 -6t-5.5 -14.5t5.5 -14.5t14 -6t14.5 6t6 14.5t-6 14.5t-14.5 6zM474 394h111q4 0 7.5 3t3.5 7.5t-3.5 8t-7.5 3.5h-111q-11 0 -11 -11q2 -10 11 -11zM456.5 -14q-8.5 0 -14.5 -6
t-6 -14q0 -6 3 -10.5t7.5 -7t9.5 -2.5q9 0 14.5 5.5t5.5 14t-5.5 14.5t-14 6zM408 316h235v-69h-235v69zM540 138q-4 0 -8 -2t-6.5 -4.5t-4 -6t-1.5 -8.5q0 -8 5.5 -14t14 -6t14.5 6t6 14.5t-6 14.5t-14 6zM623 138q-8 0 -14 -6t-6 -14.5t6 -14.5t14 -6t14 6t6 14.5t-6 14.5
t-14 6zM623 62q-8 0 -14 -6t-6 -14q0 -6 2.5 -10.5t7.5 -7.5t10 -3q8 0 14 6t6 14.5t-6 14.5t-14 6zM623 -14q-8 0 -14 -6t-6 -14.5t6 -14t14 -5.5t14 5.5t6 14t-6 14.5t-14 6zM572 577v22q0 9 -6.5 15.5t-15.5 6.5t-15.5 -6.5t-6.5 -15.5v-22v-22h44v22zM655 577v22
q0 9 -6.5 15.5t-15.5 6.5t-15.5 -6.5t-6.5 -15.5v-22v-22h44v22zM643 518h-171v90h-14v124q0 17 -17 21q-3 1 -5 1q-9 0 -15.5 -6.5t-6.5 -15.5v-124h-16v-97h1q-25 -11 -41 -34.5t-16 -51.5v-172q0 -46 36 -74v0v-231q0 -11 2 -21q5 -21 18 -37.5t32.5 -26t40.5 -9.5h136
q22 0 41 9.5t32.5 26t17.5 37.5l2 10q1 5 1 11v231v0q35 28 35 74v172q0 38 -27.5 65.5t-65.5 27.5zM474 416h111q4 0 7.5 -3.5t3.5 -7.5q0 -3 -1 -5t-2.5 -3.5t-3.5 -2t-4 -0.5h-111q-3 0 -5.5 1.5t-4 4t-1.5 5.5q2 9 11 11zM456 -54q-4 0 -7.5 1.5t-6.5 4t-4.5 6.5t-1.5 8
q0 8 6 14t14.5 6t14 -6t5.5 -14.5t-5.5 -14t-14.5 -5.5zM456 21q-5 0 -9.5 3t-7.5 7.5t-3 10.5q0 8 6 14t14.5 6t14 -6t5.5 -14q0 -5 -1.5 -8.5t-4 -6t-6.5 -4.5t-8 -2zM456 97q-2 0 -4 0.5t-3.5 1.5t-3.5 2t-3 3l-2 2l-2 4q-1 1 -1.5 3t-0.5 4q0 6 3 10.5t7.5 7.5t9.5 3
q9 0 14.5 -6t5.5 -15q0 -3 -1 -6t-2.5 -5.5t-4 -4.5t-5.5 -3t-7 -1zM539.5 -54q-8.5 0 -14 5.5t-5.5 14t5.5 14.5t14 6t14.5 -6t6 -14.5t-6 -14t-14.5 -5.5zM540 21q-9 0 -14.5 6t-5.5 15q0 5 2.5 9.5t7 7.5t10.5 3q8 0 14 -6t6 -14q0 -5 -1.5 -8.5t-4.5 -6t-6.5 -4.5
t-7.5 -2zM540 97q-3 0 -5 0.5t-4 1.5t-4 2.5t-3 3.5l-2 4q-1 2 -1.5 4t-0.5 4q0 9 5.5 15t14 6t14.5 -6t6 -14.5t-6 -14.5t-14 -6zM623 -54q-5 0 -10 2.5t-7.5 7t-2.5 10.5q0 8 6 14t14 6t14 -6t6 -14q0 -6 -2.5 -10.5t-7.5 -7t-10 -2.5zM623 21q-8 0 -14 6t-6 14.5t6 14.5
t14 6t14 -6t6 -14q0 -6 -2.5 -10.5t-7.5 -7.5t-10 -3zM623 97q-8 0 -14 6t-6 14.5t6 14.5t14 6t14 -6t6 -15q0 -5 -2.5 -9.5t-7 -7.5t-10.5 -3zM643 247h-235v69h235v-69z" />
    <glyph glyph-name="uniE61B" unicode="&#xe61b;" 
d="M706 527l-194 284l-194 -284l-317 -125l192 -273v-340l319 136l320 -136v340l191 273zM704 197v-204l-192 68l-191 -68v204l-128 137l192 68l127 204l128 -204l192 -68z" />
    <glyph glyph-name="uniE61C" unicode="&#xe61c;" 
d="M510.5 -148q-90.5 0 -173.5 35q-81 34 -142.5 95.5t-95.5 141.5q-35 83 -35 174t35 174q34 80 95.5 142t142.5 96q83 35 173 35q46 0 89.5 -9t84.5 -26q27 -11 51.5 -25.5t47.5 -32t43 -38.5q31 -31 55 -66.5t41 -75.5q35 -83 35 -174q0 -45 -9 -88.5t-26 -85.5
q-34 -80 -96 -141.5t-142 -95.5q-83 -35 -173.5 -35zM510 682q-38 0 -75 -7.5t-71.5 -22t-66 -35.5t-58.5 -48q-54 -54 -83 -124t-29 -146.5t29 -146.5t83.5 -124.5t124.5 -83.5t146.5 -29t146.5 29t124.5 83.5t83.5 124.5t29 146.5t-29 146.5t-84 124q-21 22 -45.5 40
t-51 31.5t-55 22.5t-58.5 14t-61 5zM349 489h98v-375h-98v375zM567 489h98v-375h-98v375z" />
    <glyph glyph-name="uniE61D" unicode="&#xe61d;" 
d="M512 608q-165 0 -302 -87.5t-210 -232.5q73 -145 210 -232.5t302 -87.5t302 87.5t210 232.5q-73 145 -210 232.5t-302 87.5zM764 438q46 -28 83.5 -66.5t66.5 -83.5q-58 -92 -150 -150q-56 -36 -120.5 -55t-131.5 -19t-131.5 19t-120.5 55q-92 58 -150 150
q29 45 66.5 83.5t83.5 66.5q2 2 5 4l6 4q-15 -43 -15 -88q0 -106 75 -181t181 -75q42 0 81 13t70.5 36.5t55 55t36.5 70.5t13 81q0 8 -0.5 15.5t-1.5 15t-2 14.5t-3 14.5t-4 14.5l-4 14q6 -4 11 -8zM512 390q0 -40 -28 -68t-68 -28t-68 28t-28 68t28 68t68 28t68 -28t28 -68
z" />
    <glyph glyph-name="uniE61E" unicode="&#xe61e;" 
d="M527 762q-51 0 -101 -11.5t-93.5 -33.5t-82 -52t-69 -68.5t-52.5 -82.5t-33.5 -93.5t-11.5 -101.5q0 -90 35 -172.5t94.5 -141.5t141.5 -94.5t172.5 -35.5t172.5 35.5t141.5 94.5t94.5 141.5t35 172.5q0 72 -22.5 139.5t-63.5 122t-95.5 95.5t-122 63.5t-140.5 22.5v0z
M527 -61q-103 0 -190.5 51t-138.5 138.5t-51 190.5t51 190.5t138.5 138.5t191 51t191 -51t138.5 -138.5t51 -190.5t-51 -190.5t-138.5 -138.5t-191.5 -51v0zM446 115q-3 0 -7 2q-8 4 -8 14v362q0 9 8 14q3 1 5.5 1.5t5.5 -0.5t5 -2l254 -176q3 -3 5 -6t2 -7q0 -8 -7 -13
l-253 -186q-4 -3 -10 -3z" />
    <glyph glyph-name="uniE61F" unicode="&#xe61f;" 
d="M839 504q119 -85 185 -216q-73 -145 -210 -232.5t-302 -87.5q-92 0 -179 29l78 78q50 -11 101 -11q137 0 252 74q92 58 150 150q-28 44 -64.5 81t-79.5 65zM512 102q-17 0 -33.5 2t-32.5 7l313 313q5 -16 7 -32.5t2 -33.5q0 -106 -75 -181t-181 -75zM960 800h-54
l-219 -220q-85 28 -175 28q-165 0 -302 -87.5t-210 -232.5q65 -129 181 -213l-181 -181v-54h54l906 906v54zM416 486q14 0 27.5 -4t24.5 -11.5t20 -17.5t15 -22.5t8 -25.5l-110 -110q-34 5 -57.5 32t-23.5 63q0 40 28 68t68 28zM110 288q29 45 66.5 83.5t83.5 66.5q2 2 5 4
l6 4q-15 -43 -15 -88q0 -87 53 -156l-59 -58q-85 58 -140 144z" />
    <glyph glyph-name="uniE620" unicode="&#xe620;" 
d="M959 300v-1v0v-1v0v-1q-2 -11 -9 -19q-11 -13 -30 -33q-91 -92 -190 -144q-75 -39 -143 -51q-83 -15 -163 2q-61 13 -123 46l1 1l112 74q44 -32 98 -32q69 0 118.5 49t49.5 119q0 4 -0.5 9t-1 9.5t-1 8.5t-1.5 9l148 97q7 -5 14 -11t15 -11q28 -24 52.5 -47t44.5 -47
q3 -4 5.5 -9t3.5 -10v-1v-1v0v-1v-1v-1v-2zM512 225q-4 0 -8 0.5t-8 0.5l98 65q-2 -9 -6.5 -18t-10 -16t-13 -13t-15.5 -10.5t-17.5 -6.5t-19.5 -2zM880 522l-727 -475l-1 -1q-5 -3 -11 -3t-10.5 3t-7.5 7.5t-3 10.5q0 11 9 18l728 475v0q5 4 11 4q4 0 7 -1t5.5 -3t4.5 -5
t3 -6t1 -6q0 -12 -9 -18zM512 393q4 0 8 -0.5t7.5 -1t7.5 -2.5l-107 -70q2 12 7 23.5t12.5 20.5t17.5 15.5t22 10.5t25 4zM614 442q-46 35 -102 35q-28 0 -53.5 -8.5t-46 -24t-36 -36.5t-24 -46.5t-8.5 -52.5q0 -21 6 -43l-146 -97l-8 -5q-14 10 -26 20q-60 50 -97 94
q-4 5 -6.5 11.5t-2.5 12.5t2.5 12t6.5 12q7 8 14 15.5t16 17.5q91 91 190 143q36 19 71.5 32t71.5 20q16 3 32.5 4.5t32.5 2t32.5 -0.5t33 -3t32.5 -6q57 -12 116 -41l-7 -5z" />
    <glyph glyph-name="uniE621" unicode="&#xe621;" 
d="M959 300v-1v-1v0v-1q0 -2 -0.5 -4t-1 -3.5t-1.5 -3.5l-2 -2l-2 -4l-2 -2l-14 -16q-7 -8 -16 -17q-22 -22 -44 -42t-46 -38t-49 -34.5t-51 -30.5q-75 -39 -143 -52q-83 -15 -163 2q-125 28 -254 133q-60 50 -97 95q-20 24 0 48q11 14 30 33q91 93 190 145q36 19 71.5 32
t71.5 20q27 5 54 6.5t54.5 -0.5t54.5 -8q125 -28 254 -133q60 -50 97 -95q1 -1 2.5 -3t2.5 -3.5t1.5 -3.5t1.5 -4t1 -5v-1v0v-1v-1v-2v-2zM512 478q-70 0 -119 -49.5t-49 -119.5t49 -119.5t118.5 -49.5t119 49.5t49.5 119.5q0 46 -22.5 85t-61.5 61.5t-84 22.5zM511.5 224
q-34.5 0 -59 25t-24.5 60q0 23 11 42.5t30.5 31t42.5 11.5q17 0 32.5 -7t26.5 -18t18 -27t7 -33q0 -35 -25 -60t-59.5 -25z" />
    <glyph glyph-name="uniE622" unicode="&#xe622;" 
d="M512 710q-103 0 -190.5 -51t-138.5 -138.5t-51 -191t51 -191t138.5 -138.5t190.5 -51t190.5 51t138.5 138.5t51 191t-51 191t-138.5 138.5t-190.5 51zM512 -11q-92 0 -170.5 46t-124 124t-45.5 170.5t45.5 170.5t124 123.5t170.5 45.5q69 0 132 -27t108.5 -72.5
t72.5 -108.5t27 -132q0 -92 -45.5 -170t-124 -124t-170.5 -46zM398 136v391h126q62 0 96 -26t34 -80q0 -26 -16.5 -46.5t-42.5 -30.5v-1q35 -7 54.5 -33.5t19.5 -63.5q0 -54 -34 -82t-94 -28h-143zM448 360h89q31 1 49 17t18 45q0 33 -20.5 48.5t-59.5 15.5h-76v-126z
M448 320v-144h93q38 0 58 18q11 9 16 22t5 30q0 35 -17.5 54.5t-54.5 19.5h-100z" />
    <glyph glyph-name="uniE623" unicode="&#xe623;" 
d="M512.5 718q-104.5 0 -193 -51.5t-140 -140t-51.5 -193t51.5 -193t140 -140t193 -51.5t193 51.5t140 140t51.5 193t-51.5 193t-140 140t-193 51.5zM512 -10q-56 0 -108 17.5t-94.5 49t-74.5 74t-49 95t-17 108.5q0 69 27 133t73 110t110 73t133 27q94 0 173 -46t125 -125
t46 -172.5t-46 -172.5t-125 -125t-173 -46zM631 322h-183v-143h210v-41h-260v395h257v-40h-207v-130h183v-41z" />
    <glyph glyph-name="uniE624" unicode="&#xe624;" 
d="M408 120h50v176h182v40h-182v138h209v41h-259v-395zM512 718q-104 0 -192.5 -51.5t-140 -140t-51.5 -193t51.5 -193t140 -140t192.5 -51.5t192.5 51.5t140 140t51.5 193t-51.5 193t-140 140t-192.5 51.5zM512 -10q-93 0 -172.5 46t-125.5 125t-46 172.5t46 172.5
t125.5 125t172.5 46t172.5 -46t125.5 -125t46 -172q0 -70 -27.5 -133.5t-73.5 -110t-109.5 -73.5t-133.5 -27z" />
    <glyph glyph-name="uniE625" unicode="&#xe625;" 
d="M436 473q28 34 75 34q23 0 40 -5.5t28 -15.5q22 -22 29 -58h50q-8 56 -44 88t-103 32q-11 0 -22 -1.5t-21 -4t-19.5 -6t-18 -8.5t-16 -11t-14.5 -14q-43 -44 -43 -118v-80q0 -74 45.5 -118.5t117.5 -44.5q56 0 90 17.5t48 39.5v144h-139v-40h89v-91q-4 -6 -12 -11.5
t-19 -9.5t-25.5 -6.5t-31.5 -2.5q-25 0 -45.5 8.5t-35.5 25.5q-31 34 -31 89v81q0 27 7 48.5t21 38.5zM512 719q-63 0 -121.5 -19.5t-105.5 -55t-83 -83t-55 -106t-19 -121.5q0 -104 51.5 -192.5t140 -140t192.5 -51.5t192.5 51.5t140 140t51.5 193t-51.5 193t-140 140
t-192.5 51.5zM512 -9q-70 0 -133.5 27t-109.5 73t-73.5 110t-27.5 133q0 94 46 173t125.5 125t172.5 46q40 0 78.5 -9t72.5 -26t64 -40.5t53.5 -53.5t40.5 -63.5t26 -72.5t9 -79q0 -93 -46 -172t-125.5 -125t-172.5 -46z" />
    <glyph glyph-name="uniE626" unicode="&#xe626;" 
d="M512 688q-81 0 -155.5 -31.5t-128 -85t-85 -128t-31.5 -155.5q0 -109 53.5 -201t145.5 -145.5t201 -53.5t201 53.5t145.5 145.5t53.5 201t-53.5 201t-145.5 145.5t-201 53.5zM512 -67q-96 0 -178 47.5t-129.5 129.5t-47.5 178t47.5 178t129.5 129.5t178 47.5t178 -47.5
t129.5 -129.5t47.5 -178t-47.5 -178t-129.5 -129.5t-178 -47.5zM489 535l-168 -435h57l43 116h183l42 -116h57l-166 435h-48zM437 260l76 206l75 -206h-151z" />
    <glyph glyph-name="uniE627" unicode="&#xe627;" 
d="M512 688q-109 0 -201 -53.5t-145.5 -145.5t-53.5 -201t53.5 -201t145.5 -145.5t201 -53.5t201 53.5t145.5 145.5t53.5 201t-53.5 201t-145.5 145.5t-201 53.5zM512 -67q-96 0 -178 47.5t-129.5 129.5t-47.5 178t47.5 178t129.5 129.5t178 47.5q72 0 137.5 -28.5t113 -76
t76 -113t28.5 -137.5q0 -96 -47.5 -178t-129.5 -129.5t-178 -47.5zM433 428q30 40 82 40q49 0 73.5 -25.5t32.5 -75.5h55q-7 70 -47.5 108t-113.5 38q-76 0 -121.5 -52t-45.5 -135v-77q0 -83 45.5 -134.5t121.5 -51.5q72 0 113 39.5t48 105.5h-55q-8 -51 -32 -75.5
t-74 -24.5q-52 0 -82 39.5t-30 101.5v78q0 31 7.5 56t22.5 45z" />
    <glyph glyph-name="uniE628" unicode="&#xe628;" 
d="M512 688q-109 0 -201 -53.5t-145.5 -145.5t-53.5 -201t53.5 -201t145.5 -145.5t201 -53.5t201 53.5t145.5 145.5t53.5 201q0 81 -31.5 155.5t-85 128t-128 85t-155.5 31.5zM512 -67q-96 0 -178 47.5t-129.5 129.5t-47.5 178t47.5 178t129.5 129.5t178 47.5
q72 0 137.5 -28.5t113 -76t76 -113t28.5 -137.5q0 -96 -47.5 -178t-129.5 -129.5t-178 -47.5zM519 526h-140v-459h134q96 0 150.5 54t54.5 144v62q0 90 -54 144.5t-145 54.5zM659 265q0 -69 -36.5 -110t-109.5 -41h-75v364h81q69 0 104.5 -40t35.5 -110v-63z" />
  </font>
</defs>
</svg>
